
        <svg xmlns="http://www.w3.org/2000/svg" xmlns:xlink="http://www.w3.org/1999/xlink" version="1.1" width="3200" height="957.7553582023262" viewBox="0 0 3200 957.7553582023262">
			
			<g transform="scale(10) translate(10, 10)">
				<defs id="SvgjsDefs2302"/><g id="SvgjsG2303" featureKey="PG4fjM-0" transform="matrix(0.17455750341432036,0,0,0.17455750341432036,-8.054065788010492,-7.548930157421643)" fill="#000">  <defs xmlns="http://www.w3.org/2000/svg">      </defs>  <path xmlns="http://www.w3.org/2000/svg" d="M497,312.5c-3.3,13.9-8.1,27.3-14.4,40.1-17.4,34.7-47.8,61.2-79.1,84.2-10.9,8.3-22.4,15.6-34.6,21.9-26,12.7-55.4,17.5-84.4,18.4-61.5,2.3-126.4-11.2-172.8-52-13.7-12.3-25.6-26.5-35.3-42.1-41.1-68.4-40.3-154.2,2.2-221.8,38.4-58.6,104.2-94.6,172.2-110.5,16.7-4.1,33.8-6.6,51.1-7.4,64.4-1.5,125.4,28.4,163.6,80.3,38.4,53.5,47.4,125,31.4,189M395.5,82.2c-22.9-13.1-49.7-18.3-76.1-19.8-56.8-3.2-115.2,10.7-162.2,42.6s-82.3,82.4-91.8,138.5c-9.5,56.1,8,117,48.7,156.7,27.4,26.7,63.3,43,101.4,46.2,11.8,1,24.9,1.2,33.3,9.6,4.9,3.9,11.1,5.9,17.4,5.7,82.8,4.8,166.2-44.8,201.3-120,35-75.2,19.5-171-37.5-231.3-10-11-21.6-20.4-34.4-28.1Z" style="fill: ; stroke-width: 0px;"/>  <path xmlns="http://www.w3.org/2000/svg" d="M169.9,350.8c0,5.5-1.9,10.8-5.3,15-2.9,5-6.9,9.3-11.6,12.6-4.8,3.3-11,4-16.4,1.8-5-2.6-8.3-7.7-8.7-13.3-.3-5.6,1.1-11.1,4.1-15.8,4-7.6,11.3-12.8,19.7-14.1,8.7-.9,16.7,5.1,18.2,13.8M143.2,356.2c-2.1,3.7-2.8,9.6,1.2,11.2,1.9.5,4,.1,5.7-1,3.2-1.6,5.6-4.5,6.5-8,.7-3.6-1.6-7.2-5.2-8-3.6.3-6.7,2.5-8.2,5.8Z" style="fill: ; stroke-width: 0px;"/>  <path xmlns="http://www.w3.org/2000/svg" d="M313.9,395.8c5.5-1.6,11.3-1.3,16.6,1,3.8.7,7.2,2.7,9.6,5.8,1.9,4.4,1.1,9.6-2.2,13.2-3.2,3.5-6.2,7.1-8.9,10.9-2.3,3.3-6.5,4.6-10.2,3.3-3.6-1.4-6.7-4-8.7-7.4-3-4.2-4.5-9.3-4.3-14.4.2-5.3,3.3-10.1,8.1-12.4M327.1,411.4c-.3-2-2.2-3.3-4.2-3-1,.2-1.9.7-2.4,1.6.7,1.4,1.8,2.6,3.2,3.3,1.3.5,2.7,0,3.3-1.3,0-.2.1-.4.2-.7h0Z" style="fill: ; stroke-width: 0px;"/>  <path xmlns="http://www.w3.org/2000/svg" d="M430.6,269.1c-4.2-3.1-6.6-8.1-6.3-13.4,1.9-9.3,10.4-15.9,19.9-15.3,9.5,1.3,16.4,9.7,15.7,19.2-1.5,9.4-10.4,15.9-19.8,14.4-3.6-.9-6.9-2.7-9.6-5.2M447.2,258.4c.3-3.1-1.9-5.8-5-6.1-3.1-.3-5.8,1.9-6.1,5-.2,2,.7,3.9,2.3,5.1,2.8,1.7,6.4.8,8.1-1.9.3-.5.6-1.2.7-1.8v-.3Z" style="fill: ; stroke-width: 0px;"/>  <path xmlns="http://www.w3.org/2000/svg" d="M416,348.6c-5.8,11.5-13.1,24-25.3,27.8-19.2,6.3-37.3-10.3-51.5-24.6-17-17.2-35.4-33-54.9-47.3,8.1,27.1,16.2,55.9,9.6,83.4-1.7,9.8-7.3,18.5-15.5,24-5.2,2.5-10.9,4-16.7,4.4-13.2,2.5-26.8,2.7-40.1.6-13.2-3.1-26-11.6-30-24.4-5.1-16.2,4.8-33,13.9-47.2l43.2-66.5-66.1,24.7c-12.3,5.2-25.2,8.7-38.4,10.5-13.3,1.7-26.8-1.9-37.5-10-12.1-10.3-16.6-27.1-16.9-43.2-.5-24.9,10-52.2,32.7-62.4,22.7-10.2,48.3-.2,70.9,9.6l37,15.8c-11.6-15.6-22-32.1-31-49.3-8.7-16.6-16-37.5-5.9-53.3,18.5-28,51.7-42.5,84.8-37.1,8.7,1.2,16.8,4.9,23.4,10.6,14.4,13.9,11.9,37.2,8.2,56.9l-10.3,55.2,50.2-72.9c7.6-11,17.1-23.2,30.6-23.7,12.2-.4,22.3,9.6,29.1,19.6,16.8,25,23.6,55.3,19.2,85-2,12.6-6.6,25.8-17,33.1-8.3,5.8-18.8,6.9-28.8,7.9l-34.1,3.3c22.5,10.4,52.8,2.3,70.4,19.9,8.4,9.5,12.1,22.3,9.9,34.8-2.2,12.3-6.5,24.2-12.6,35.1M277.2,245.1l22.5-110.4c2-14.3-5.5-28.3-18.6-34.5-13.1-5.7-27.9-5.5-40.8.7-12.7,6.2-23.8,15.1-32.7,26.1-6.8,7.8-3.4,19.9,1,29.3,16,34.3,39.4,64.6,68.6,88.6M389.8,130.7c-2.4-3.6-6.6-5.7-10.9-5.3-2.2.8-4.2,2.3-5.6,4.2-32.2,35.9-55.2,78.8-77.9,121.1-.9,1.2-1.2,2.8-.6,4.2,1.3,1.2,3.2,1.5,4.8.8,31-7.7,62.6-12.6,94.5-14.6,8.3-.5,13.4-9.3,15.9-17.2,9.9-32.4,2.3-67.7-20.2-93.2M105.5,270.9c.9,6.2,3.4,12.1,7.3,17,10.8,12.5,30.5,10.3,46.6,6.2,33.7-8.6,66.5-20.5,97.9-35.5-10.1-9.6-23.3-15.5-36.1-21.2l-54.2-23.6c-5.8-2.9-12.1-4.9-18.5-6-15.1-1-29.5,6.8-37,19.9-7.2,13.2-9.3,28.6-5.9,43.2M383.7,280.9c-32.7-7.4-67.2-13.3-99.3-4.4,28.1,29.2,57.6,56.9,88.5,83,6.1,4.2,14.2,3.9,19.9-.8,5.4-4.7,9.5-10.8,11.8-17.7,3.2-7.6,5.8-15.5,7.8-23.5,1.9-5.8,2.2-11.9.8-17.9-3.7-11.7-17.5-16.2-29.5-18.9M278.5,382.5c7.3-31.6-9.6-63.6-11.3-96-.2-1.6-1.7-2.7-3.3-2.4-.2,0-.4,0-.6.2-1.6.7-2.9,1.9-3.7,3.5-15.3,21.7-29.9,43.8-44.1,66.2-4.4,6.1-7.6,12.9-9.6,20.2-1.9,7.4,0,15.2,5.1,20.8,8.4,8,21.8,5.2,33.4,6,7.6.5,15.7,2.5,22.5-.8,6.2-3.9,10.4-10.3,11.5-17.6Z" style="fill: ; stroke-width: 0px;"/>  <path xmlns="http://www.w3.org/2000/svg" d="M149.1,174.2c-2.5.9-5.1,1.3-7.8,1-6.1-1.4-10.2-7.2-9.6-13.4.9-6.1,4.9-11.4,10.5-13.9,7.5-3.6,18.5-1.5,21.2,6.5,2.7,8-5.7,17-14.4,19.9M151.6,162.8c1.1-.8,1.9-2,2.1-3.3-.8-1.1-2.1-1.8-3.4-2-1.1.8-1.8,2.1-2,3.4.8,1.1,2,1.8,3.4,2h0Z" style="fill: ; stroke-width: 0px;"/>  <path xmlns="http://www.w3.org/2000/svg" d="M330.4,108.7c-3.2-4.4-3.6-10.2-1.1-15,1.2-2.9,3.3-5.3,6-7,6.6-3.2,14.5-.5,17.7,6.1.2.4.4.8.5,1.2,2.1,7.5-1.9,15.3-9.2,18-4.9,1.8-10.4.6-14-3.3Z" style="fill: ; stroke-width: 0px;"/></g><g id="SvgjsG2304" featureKey="jxYttZ-0" transform="matrix(4.324345367957592,0,0,4.324345367957592,91.3841714944473,-18.26607325359629)" fill="#000"><path d="M10.801 6.074 l2.3438 0 l0 13.926 l-2.3438 0 l0 -5.9473 l-6.4648 0 l0 5.9473 l-2.3438 0 l0 -13.926 l2.3438 0 l0 5.918 l6.4648 0 l0 -5.918 z M19.033253125 20.18555 c-1.5918 0 -3.0273 -0.76172 -3.0273 -2.6758 c0 -2.0996 1.709 -2.7539 3.7598 -3.125 l1.4844 -0.27344 c0.64453 -0.12695 0.9082 -0.41992 0.9082 -0.88867 c0 -1.2109 -0.94727 -1.6113 -1.9238 -1.6113 c-1.0645 0 -1.9336 0.46875 -2.0801 1.7285 l-2.0215 -0.37109 c0.3418 -2.0313 1.8066 -2.9688 4.2383 -2.9688 c1.9629 0 3.9453 0.70313 3.9453 3.4668 l0 3.8086 c0 0.92773 0.24414 1.1914 0.92773 1.1914 l0.15625 0 l0 1.5332 l-1.0645 0 c-1.1035 0 -1.7676 -0.39063 -1.9922 -1.2988 l-0.10742 0 c-0.76172 1.0742 -2.0215 1.4844 -3.2031 1.4844 z M19.560553125 18.418 c1.543 0 2.7441 -1.1426 2.7441 -2.9395 l-2.5098 0.55664 c-1.0352 0.19531 -1.6113 0.54688 -1.6113 1.2891 c0 0.77148 0.60547 1.0938 1.377 1.0938 z M32.802728125 9.99 c2.1973 0 3.5352 1.2109 3.5352 3.3984 l0 6.6113 l-2.2656 0 l0 -6.123 c0 -1.4844 -0.89844 -2.0508 -1.9336 -2.0508 c-1.2402 0 -2.3047 0.70313 -2.3145 2.5293 l0 5.6445 l-2.2461 0 l0 -9.8242 l2.2461 0 l0 1.1621 c0.6543 -0.84961 1.6992 -1.3477 2.9785 -1.3477 z M43.583975 20.17578 c-2.9492 0 -5.0879 -2.0313 -5.0879 -5.0977 c0 -3.0566 2.1387 -5.0879 5.0879 -5.0879 c2.334 0 4.1211 1.2402 4.6582 3.4277 l-2.0898 0.27344 c-0.38086 -1.25 -1.3477 -1.8945 -2.5879 -1.8945 c-1.6406 0 -2.8223 1.2988 -2.8223 3.2813 s1.1816 3.2813 2.8223 3.2813 c1.2402 0 2.207 -0.63477 2.5879 -1.8848 l2.0898 0.26367 c-0.53711 2.1875 -2.3633 3.4375 -4.6582 3.4375 z"/></g>
			</g>
		</svg>
	